<?xml version="1.0" encoding="UTF-8" standalone="no"?>
<!DOCTYPE svg PUBLIC "-//W3C//DTD SVG 1.1//EN"
 "http://www.w3.org/Graphics/SVG/1.1/DTD/svg11.dtd">
<!-- Generated by graphviz version 2.38.0 (20140413.2041)
 -->
<!-- Title: G Pages: 1 -->
<svg width="256pt" height="404pt"
 viewBox="0.00 0.00 255.92 404.00" xmlns="http://www.w3.org/2000/svg" xmlns:xlink="http://www.w3.org/1999/xlink">
<g id="graph0" class="graph" transform="scale(1 1) rotate(0) translate(4 400)">
<title>G</title>
<polygon fill="white" stroke="none" points="-4,4 -4,-400 251.917,-400 251.917,4 -4,4"/>
<!-- 1 -->
<g id="n1" class="node"><title>1</title>
<ellipse fill="orange" stroke="black" cx="120.917" cy="-378" rx="27" ry="18"/>
<text text-anchor="middle" x="120.917" y="-374.3" font-family="Times New Roman,serif" font-size="14.00">1</text>
</g>
<!-- 4 -->
<g id="n4" class="node"><title>4</title>
<ellipse fill="orange" stroke="black" cx="93.9171" cy="-306" rx="27" ry="18"/>
<text text-anchor="middle" x="93.9171" y="-302.3" font-family="Times New Roman,serif" font-size="14.00">4</text>
</g>
<!-- 1&#45;&#45;4 -->
<g id="edge5" class="edge"><title>1&#45;&#45;4</title>
<path fill="none" stroke="black" d="M114.518,-360.411C110.277,-349.414 104.728,-335.027 100.457,-323.956"/>
</g>
<!-- 2 -->
<g id="n2" class="node"><title>2</title>
<ellipse fill="orange" stroke="black" cx="148.917" cy="-162" rx="27" ry="18"/>
<text text-anchor="middle" x="148.917" y="-158.3" font-family="Times New Roman,serif" font-size="14.00">2</text>
</g>
<!-- 2&#45;&#45;1 -->
<g id="edge1" class="edge"><title>2&#45;&#45;1</title>
<path fill="none" stroke="black" d="M147.153,-180.43C144.094,-210.01 137.409,-271.904 129.917,-324 128.19,-336.009 125.896,-349.489 124.056,-359.849"/>
</g>
<!-- 5 -->
<g id="n5" class="node"><title>5</title>
<ellipse fill="orange" stroke="black" cx="38.9171" cy="-90" rx="27" ry="18"/>
<text text-anchor="middle" x="38.9171" y="-86.3" font-family="Times New Roman,serif" font-size="14.00">5</text>
</g>
<!-- 2&#45;&#45;5 -->
<g id="edge7" class="edge"><title>2&#45;&#45;5</title>
<path fill="none" stroke="black" d="M129.757,-148.807C109.567,-135.959 77.9646,-115.848 57.858,-103.053"/>
</g>
<!-- 3 -->
<g id="n3" class="node"><title>3</title>
<ellipse fill="orange" stroke="black" cx="93.9171" cy="-234" rx="27" ry="18"/>
<text text-anchor="middle" x="93.9171" y="-230.3" font-family="Times New Roman,serif" font-size="14.00">3</text>
</g>
<!-- 3&#45;&#45;2 -->
<g id="edge2" class="edge"><title>3&#45;&#45;2</title>
<path fill="none" stroke="black" d="M105.851,-217.811C115.077,-206.07 127.787,-189.893 137.006,-178.159"/>
</g>
<!-- 3&#45;&#45;4 -->
<g id="edge4" class="edge"><title>3&#45;&#45;4</title>
<path fill="none" stroke="black" d="M99.7965,-251.956C100.97,-263.027 100.957,-277.414 99.757,-288.411"/>
</g>
<!-- 6 -->
<g id="n6" class="node"><title>6</title>
<ellipse fill="orange" stroke="black" cx="38.9171" cy="-18" rx="27" ry="18"/>
<text text-anchor="middle" x="38.9171" y="-14.3" font-family="Times New Roman,serif" font-size="14.00">6</text>
</g>
<!-- 3&#45;&#45;6 -->
<g id="edge9" class="edge"><title>3&#45;&#45;6</title>
<path fill="none" stroke="black" d="M94.5147,-215.93C95.0054,-185.842 93.51,-121.84 74.9171,-72 69.7073,-58.0349 60.088,-44.1682 52.1028,-34.1232"/>
</g>
<!-- 7 -->
<g id="n7" class="node"><title>7</title>
<ellipse fill="orange" stroke="black" cx="220.917" cy="-162" rx="27" ry="18"/>
<text text-anchor="middle" x="220.917" y="-158.3" font-family="Times New Roman,serif" font-size="14.00">7</text>
</g>
<!-- 3&#45;&#45;7 -->
<g id="edge13" class="edge"><title>3&#45;&#45;7</title>
<path fill="none" stroke="black" d="M114.041,-221.908C137.681,-208.878 176.686,-187.379 200.467,-174.272"/>
</g>
<!-- 4&#45;&#45;3 -->
<g id="edge3" class="edge"><title>4&#45;&#45;3</title>
<path fill="none" stroke="black" d="M88.0772,-288.411C86.877,-277.414 86.8639,-263.027 88.0377,-251.956"/>
</g>
<!-- 4&#45;&#45;6 -->
<g id="edge10" class="edge"><title>4&#45;&#45;6</title>
<path fill="none" stroke="black" d="M77.7113,-291.192C67.008,-281.276 53.4346,-267.05 44.9171,-252 12.0815,-193.98 12.3452,-173.997 2.91708,-108 0.65434,-92.1608 -1.78571,-87.2933 2.91708,-72 7.2981,-57.7531 16.9563,-43.8997 25.1667,-33.9312"/>
</g>
<!-- 5&#45;&#45;4 -->
<g id="edge6" class="edge"><title>5&#45;&#45;4</title>
<path fill="none" stroke="black" d="M38.3195,-108.07C37.8287,-138.158 39.3242,-202.16 57.9171,-252 63.1268,-265.965 72.7462,-279.832 80.7314,-289.877"/>
</g>
<!-- 5&#45;&#45;6 -->
<g id="edge11" class="edge"><title>5&#45;&#45;6</title>
<path fill="none" stroke="black" d="M33.0772,-72.411C31.877,-61.4141 31.8639,-47.0274 33.0377,-35.9562"/>
</g>
<!-- 6&#45;&#45;5 -->
<g id="edge8" class="edge"><title>6&#45;&#45;5</title>
<path fill="none" stroke="black" d="M44.7965,-35.9562C45.9703,-47.0274 45.9571,-61.4141 44.757,-72.411"/>
</g>
<!-- 7&#45;&#45;6 -->
<g id="edge12" class="edge"><title>7&#45;&#45;6</title>
<path fill="none" stroke="black" d="M204.12,-147.667C182.092,-130.206 142.215,-98.6776 107.917,-72 90.2709,-58.2745 69.9664,-42.705 55.975,-32.0111"/>
</g>
<!-- 8 -->
<g id="n8" class="node"><title>8</title>
<ellipse fill="orange" stroke="black" cx="220.917" cy="-234" rx="27" ry="18"/>
<text text-anchor="middle" x="220.917" y="-230.3" font-family="Times New Roman,serif" font-size="14.00">8</text>
</g>
<!-- 8&#45;&#45;7 -->
<g id="edge14" class="edge"><title>8&#45;&#45;7</title>
<path fill="none" stroke="black" d="M220.917,-215.697C220.917,-204.846 220.917,-190.917 220.917,-180.104"/>
</g>
</g>
</svg>
