<?xml version="1.0" encoding="UTF-8" standalone="no"?>
<!DOCTYPE svg PUBLIC "-//W3C//DTD SVG 1.1//EN"
 "http://www.w3.org/Graphics/SVG/1.1/DTD/svg11.dtd">
<!-- Generated by graphviz version 2.38.0 (20140413.2041)
 -->
<!-- Title: G Pages: 1 -->
<svg width="278pt" height="404pt"
 viewBox="0.00 0.00 278.00 404.00" xmlns="http://www.w3.org/2000/svg" xmlns:xlink="http://www.w3.org/1999/xlink">
<g id="graph0" class="graph" transform="scale(1 1) rotate(0) translate(4 400)">
<title>G</title>
<polygon fill="white" stroke="none" points="-4,4 -4,-400 274,-400 274,4 -4,4"/>
<!-- 1 -->
<g id="n1" class="node"><title>1</title>
<ellipse fill="orange" stroke="black" cx="163" cy="-378" rx="27" ry="18"/>
<text text-anchor="middle" x="163" y="-374.3" font-family="Times New Roman,serif" font-size="14.00">1</text>
</g>
<!-- 2 -->
<g id="n2" class="node"><title>2</title>
<ellipse fill="orange" stroke="black" cx="163" cy="-306" rx="27" ry="18"/>
<text text-anchor="middle" x="163" y="-302.3" font-family="Times New Roman,serif" font-size="14.00">2</text>
</g>
<!-- 1&#45;&#45;2 -->
<g id="edge1" class="edge"><title>1&#45;&#45;2</title>
<path fill="none" stroke="black" d="M163,-359.697C163,-348.846 163,-334.917 163,-324.104"/>
</g>
<!-- 3 -->
<g id="n3" class="node"><title>3</title>
<ellipse fill="orange" stroke="black" cx="108" cy="-234" rx="27" ry="18"/>
<text text-anchor="middle" x="108" y="-230.3" font-family="Times New Roman,serif" font-size="14.00">3</text>
</g>
<!-- 1&#45;&#45;3 -->
<g id="edge3" class="edge"><title>1&#45;&#45;3</title>
<path fill="none" stroke="black" d="M150.252,-361.702C142.441,-351.587 132.852,-337.708 127,-324 116.826,-300.17 111.89,-270.346 109.656,-251.988"/>
</g>
<!-- 2&#45;&#45;3 -->
<g id="edge2" class="edge"><title>2&#45;&#45;3</title>
<path fill="none" stroke="black" d="M151.066,-289.811C141.84,-278.07 129.13,-261.893 119.911,-250.159"/>
</g>
<!-- 4 -->
<g id="n4" class="node"><title>4</title>
<ellipse fill="orange" stroke="black" cx="163" cy="-162" rx="27" ry="18"/>
<text text-anchor="middle" x="163" y="-158.3" font-family="Times New Roman,serif" font-size="14.00">4</text>
</g>
<!-- 3&#45;&#45;4 -->
<g id="edge4" class="edge"><title>3&#45;&#45;4</title>
<path fill="none" stroke="black" d="M119.934,-217.811C129.16,-206.07 141.87,-189.893 151.089,-178.159"/>
</g>
<!-- 4&#45;&#45;2 -->
<g id="edge5" class="edge"><title>4&#45;&#45;2</title>
<path fill="none" stroke="black" d="M163,-180.189C163,-207.52 163,-260.578 163,-287.871"/>
</g>
<!-- 5 -->
<g id="n5" class="node"><title>5</title>
<ellipse fill="orange" stroke="black" cx="99" cy="-90" rx="27" ry="18"/>
<text text-anchor="middle" x="99" y="-86.3" font-family="Times New Roman,serif" font-size="14.00">5</text>
</g>
<!-- 4&#45;&#45;5 -->
<g id="edge6" class="edge"><title>4&#45;&#45;5</title>
<path fill="none" stroke="black" d="M149.427,-146.155C138.566,-134.276 123.409,-117.697 112.553,-105.824"/>
</g>
<!-- 6 -->
<g id="n6" class="node"><title>6</title>
<ellipse fill="orange" stroke="black" cx="171" cy="-90" rx="27" ry="18"/>
<text text-anchor="middle" x="171" y="-86.3" font-family="Times New Roman,serif" font-size="14.00">6</text>
</g>
<!-- 4&#45;&#45;6 -->
<g id="edge7" class="edge"><title>4&#45;&#45;6</title>
<path fill="none" stroke="black" d="M164.978,-143.697C166.218,-132.846 167.81,-118.917 169.045,-108.104"/>
</g>
<!-- 5&#45;&#45;3 -->
<g id="edge10" class="edge"><title>5&#45;&#45;3</title>
<path fill="none" stroke="black" d="M100.089,-108.189C101.822,-135.52 105.185,-188.578 106.914,-215.871"/>
</g>
<!-- 7 -->
<g id="n7" class="node"><title>7</title>
<ellipse fill="orange" stroke="black" cx="27" cy="-18" rx="27" ry="18"/>
<text text-anchor="middle" x="27" y="-14.3" font-family="Times New Roman,serif" font-size="14.00">7</text>
</g>
<!-- 5&#45;&#45;7 -->
<g id="edge8" class="edge"><title>5&#45;&#45;7</title>
<path fill="none" stroke="black" d="M84.4297,-74.8345C72.0202,-62.7697 54.2694,-45.5119 41.7957,-33.3847"/>
</g>
<!-- 8 -->
<g id="n8" class="node"><title>8</title>
<ellipse fill="orange" stroke="black" cx="99" cy="-18" rx="27" ry="18"/>
<text text-anchor="middle" x="99" y="-14.3" font-family="Times New Roman,serif" font-size="14.00">8</text>
</g>
<!-- 5&#45;&#45;8 -->
<g id="edge9" class="edge"><title>5&#45;&#45;8</title>
<path fill="none" stroke="black" d="M99,-71.6966C99,-60.8463 99,-46.9167 99,-36.1043"/>
</g>
<!-- 9 -->
<g id="n9" class="node"><title>9</title>
<ellipse fill="orange" stroke="black" cx="171" cy="-18" rx="27" ry="18"/>
<text text-anchor="middle" x="171" y="-14.3" font-family="Times New Roman,serif" font-size="14.00">9</text>
</g>
<!-- 6&#45;&#45;9 -->
<g id="edge11" class="edge"><title>6&#45;&#45;9</title>
<path fill="none" stroke="black" d="M171,-71.6966C171,-60.8463 171,-46.9167 171,-36.1043"/>
</g>
<!-- 10 -->
<g id="n10" class="node"><title>10</title>
<ellipse fill="orange" stroke="black" cx="243" cy="-18" rx="27" ry="18"/>
<text text-anchor="middle" x="243" y="-14.3" font-family="Times New Roman,serif" font-size="14.00">10</text>
</g>
<!-- 6&#45;&#45;10 -->
<g id="edge12" class="edge"><title>6&#45;&#45;10</title>
<path fill="none" stroke="black" d="M185.57,-74.8345C197.98,-62.7697 215.731,-45.5119 228.204,-33.3847"/>
</g>
<!-- 10&#45;&#45;1 -->
<g id="edge13" class="edge"><title>10&#45;&#45;1</title>
<path fill="none" stroke="black" d="M241.222,-36.0272C238.599,-62.6567 234,-115.795 234,-161 234,-235 234,-235 234,-235 234,-285.991 196.922,-337.441 176.355,-362.057"/>
</g>
</g>
</svg>
