<?xml version="1.0" encoding="UTF-8" standalone="no"?>
<!DOCTYPE svg PUBLIC "-//W3C//DTD SVG 1.1//EN"
 "http://www.w3.org/Graphics/SVG/1.1/DTD/svg11.dtd">
<!-- Generated by graphviz version 2.38.0 (20140413.2041)
 -->
<!-- Title: G Pages: 1 -->
<svg width="499pt" height="908pt"
 viewBox="0.00 0.00 499.49 908.00" xmlns="http://www.w3.org/2000/svg" xmlns:xlink="http://www.w3.org/1999/xlink">
<g id="graph0" class="graph" transform="scale(1 1) rotate(0) translate(4 904)">
<title>G</title>
<polygon fill="white" stroke="none" points="-4,4 -4,-904 495.491,-904 495.491,4 -4,4"/>
<!-- 13 -->
<g id="n13" class="node"><title>13</title>
<ellipse fill="orange" stroke="black" cx="116.146" cy="-882" rx="46.2923" ry="18"/>
<text text-anchor="middle" x="116.146" y="-878.3" font-family="Times New Roman,serif" font-size="14.00">[1][3, 2][]</text>
</g>
<!-- 12 -->
<g id="n12" class="node"><title>12</title>
<ellipse fill="orange" stroke="black" cx="74.1459" cy="-810" rx="46.2923" ry="18"/>
<text text-anchor="middle" x="74.1459" y="-806.3" font-family="Times New Roman,serif" font-size="14.00">[][3, 2][1]</text>
</g>
<!-- 13&#45;&#45;12 -->
<g id="edge19" class="edge"><title>13&#45;&#45;12</title>
<path fill="none" stroke="black" d="M100.604,-864.765C92.7799,-853.779 84.0555,-839.292 78.5232,-828.124"/>
</g>
<!-- 13&#45;&#45;12 -->
<g id="edge23" class="edge"><title>13&#45;&#45;12</title>
<path fill="none" stroke="black" d="M111.857,-864.055C106.342,-852.887 97.5917,-838.343 89.7389,-827.307"/>
</g>
<!-- 14 -->
<g id="n14" class="node"><title>14</title>
<ellipse fill="orange" stroke="black" cx="157.146" cy="-738" rx="51.1914" ry="18"/>
<text text-anchor="middle" x="157.146" y="-734.3" font-family="Times New Roman,serif" font-size="14.00">[][3, 2, 1][]</text>
</g>
<!-- 13&#45;&#45;14 -->
<g id="edge21" class="edge"><title>13&#45;&#45;14</title>
<path fill="none" stroke="black" d="M116.507,-863.871C121.529,-836.431 136.985,-782.946 147.766,-755.748"/>
</g>
<!-- 16 -->
<g id="n16" class="node"><title>16</title>
<ellipse fill="orange" stroke="black" cx="272.146" cy="-810" rx="41.6928" ry="18"/>
<text text-anchor="middle" x="272.146" y="-806.3" font-family="Times New Roman,serif" font-size="14.00">[2][1][3]</text>
</g>
<!-- 15 -->
<g id="n15" class="node"><title>15</title>
<ellipse fill="orange" stroke="black" cx="272.146" cy="-738" rx="46.2923" ry="18"/>
<text text-anchor="middle" x="272.146" y="-734.3" font-family="Times New Roman,serif" font-size="14.00">[2, 1][][3]</text>
</g>
<!-- 16&#45;&#45;15 -->
<g id="edge27" class="edge"><title>16&#45;&#45;15</title>
<path fill="none" stroke="black" d="M272.146,-791.697C272.146,-780.846 272.146,-766.917 272.146,-756.104"/>
</g>
<!-- 11 -->
<g id="n11" class="node"><title>11</title>
<ellipse fill="orange" stroke="black" cx="46.1459" cy="-738" rx="41.6928" ry="18"/>
<text text-anchor="middle" x="46.1459" y="-734.3" font-family="Times New Roman,serif" font-size="14.00">[2][3][1]</text>
</g>
<!-- 12&#45;&#45;11 -->
<g id="edge17" class="edge"><title>12&#45;&#45;11</title>
<path fill="none" stroke="black" d="M61.6704,-792.411C56.1538,-781.576 50.4733,-767.45 47.1942,-756.447"/>
</g>
<!-- 12&#45;&#45;14 -->
<g id="edge22" class="edge"><title>12&#45;&#45;14</title>
<path fill="none" stroke="black" d="M87.5956,-792.765C100.082,-781.133 118.57,-765.575 133.458,-754.189"/>
</g>
<!-- 2 -->
<g id="n2" class="node"><title>2</title>
<ellipse fill="orange" stroke="black" cx="81.1459" cy="-90" rx="46.2923" ry="18"/>
<text text-anchor="middle" x="81.1459" y="-86.3" font-family="Times New Roman,serif" font-size="14.00">[3, 2][1][]</text>
</g>
<!-- 1 -->
<g id="n1" class="node"><title>1</title>
<ellipse fill="orange" stroke="black" cx="81.1459" cy="-18" rx="51.1914" ry="18"/>
<text text-anchor="middle" x="81.1459" y="-14.3" font-family="Times New Roman,serif" font-size="14.00">[3, 2, 1][][]</text>
</g>
<!-- 2&#45;&#45;1 -->
<g id="edge1" class="edge"><title>2&#45;&#45;1</title>
<path fill="none" stroke="black" d="M81.1459,-71.6966C81.1459,-60.8463 81.1459,-46.9167 81.1459,-36.1043"/>
</g>
<!-- 11&#45;&#45;12 -->
<g id="edge18" class="edge"><title>11&#45;&#45;12</title>
<path fill="none" stroke="black" d="M58.6384,-755.622C64.1736,-766.5 69.8713,-780.684 73.1403,-791.697"/>
</g>
<!-- 10 -->
<g id="n10" class="node"><title>10</title>
<ellipse fill="orange" stroke="black" cx="46.1459" cy="-666" rx="46.2923" ry="18"/>
<text text-anchor="middle" x="46.1459" y="-662.3" font-family="Times New Roman,serif" font-size="14.00">[2, 1][3][]</text>
</g>
<!-- 11&#45;&#45;10 -->
<g id="edge16" class="edge"><title>11&#45;&#45;10</title>
<path fill="none" stroke="black" d="M40.2677,-720.055C39.117,-709.211 39.1054,-695.183 40.2331,-684.275"/>
</g>
<!-- 11&#45;&#45;10 -->
<g id="edge25" class="edge"><title>11&#45;&#45;10</title>
<path fill="none" stroke="black" d="M52.0241,-720.055C53.1748,-709.211 53.1864,-695.183 52.0587,-684.275"/>
</g>
<!-- 5 -->
<g id="n5" class="node"><title>5</title>
<ellipse fill="orange" stroke="black" cx="81.1459" cy="-306" rx="46.2923" ry="18"/>
<text text-anchor="middle" x="81.1459" y="-302.3" font-family="Times New Roman,serif" font-size="14.00">[3][][2, 1]</text>
</g>
<!-- 4 -->
<g id="n4" class="node"><title>4</title>
<ellipse fill="orange" stroke="black" cx="81.1459" cy="-234" rx="46.2923" ry="18"/>
<text text-anchor="middle" x="81.1459" y="-230.3" font-family="Times New Roman,serif" font-size="14.00">[3, 1][][2]</text>
</g>
<!-- 5&#45;&#45;4 -->
<g id="edge5" class="edge"><title>5&#45;&#45;4</title>
<path fill="none" stroke="black" d="M81.1459,-287.697C81.1459,-276.846 81.1459,-262.917 81.1459,-252.104"/>
</g>
<!-- 6 -->
<g id="n6" class="node"><title>6</title>
<ellipse fill="orange" stroke="black" cx="81.1459" cy="-378" rx="46.2923" ry="18"/>
<text text-anchor="middle" x="81.1459" y="-374.3" font-family="Times New Roman,serif" font-size="14.00">[][3][2, 1]</text>
</g>
<!-- 5&#45;&#45;6 -->
<g id="edge7" class="edge"><title>5&#45;&#45;6</title>
<path fill="none" stroke="black" d="M87.0587,-324.275C88.1864,-335.183 88.1748,-349.211 87.0241,-360.055"/>
</g>
<!-- 7 -->
<g id="n7" class="node"><title>7</title>
<ellipse fill="orange" stroke="black" cx="46.1459" cy="-450" rx="41.6928" ry="18"/>
<text text-anchor="middle" x="46.1459" y="-446.3" font-family="Times New Roman,serif" font-size="14.00">[1][3][2]</text>
</g>
<!-- 7&#45;&#45;6 -->
<g id="edge8" class="edge"><title>7&#45;&#45;6</title>
<path fill="none" stroke="black" d="M54.6184,-432.055C60.1213,-421.049 67.2641,-406.764 72.7514,-395.789"/>
</g>
<!-- 8 -->
<g id="n8" class="node"><title>8</title>
<ellipse fill="orange" stroke="black" cx="46.1459" cy="-522" rx="46.2923" ry="18"/>
<text text-anchor="middle" x="46.1459" y="-518.3" font-family="Times New Roman,serif" font-size="14.00">[][3, 1][2]</text>
</g>
<!-- 7&#45;&#45;8 -->
<g id="edge10" class="edge"><title>7&#45;&#45;8</title>
<path fill="none" stroke="black" d="M52.0587,-468.275C53.1864,-479.183 53.1748,-493.211 52.0241,-504.055"/>
</g>
<!-- 9 -->
<g id="n9" class="node"><title>9</title>
<ellipse fill="orange" stroke="black" cx="46.1459" cy="-594" rx="46.2923" ry="18"/>
<text text-anchor="middle" x="46.1459" y="-590.3" font-family="Times New Roman,serif" font-size="14.00">[2][3, 1][]</text>
</g>
<!-- 10&#45;&#45;9 -->
<g id="edge14" class="edge"><title>10&#45;&#45;9</title>
<path fill="none" stroke="black" d="M40.2677,-648.055C39.117,-637.211 39.1054,-623.183 40.2331,-612.275"/>
</g>
<!-- 3 -->
<g id="n3" class="node"><title>3</title>
<ellipse fill="orange" stroke="black" cx="81.1459" cy="-162" rx="41.6928" ry="18"/>
<text text-anchor="middle" x="81.1459" y="-158.3" font-family="Times New Roman,serif" font-size="14.00">[3][1][2]</text>
</g>
<!-- 4&#45;&#45;3 -->
<g id="edge3" class="edge"><title>4&#45;&#45;3</title>
<path fill="none" stroke="black" d="M75.2677,-216.055C74.117,-205.211 74.1054,-191.183 75.2331,-180.275"/>
</g>
<!-- 14&#45;&#45;13 -->
<g id="edge20" class="edge"><title>14&#45;&#45;13</title>
<path fill="none" stroke="black" d="M156.759,-756.268C151.717,-783.717 136.325,-836.971 125.565,-864.153"/>
</g>
<!-- 14&#45;&#45;12 -->
<g id="edge24" class="edge"><title>14&#45;&#45;12</title>
<path fill="none" stroke="black" d="M143.37,-755.539C130.762,-767.255 112.219,-782.837 97.3841,-794.155"/>
</g>
<!-- 3&#45;&#45;2 -->
<g id="edge2" class="edge"><title>3&#45;&#45;2</title>
<path fill="none" stroke="black" d="M81.1459,-143.697C81.1459,-132.846 81.1459,-118.917 81.1459,-108.104"/>
</g>
<!-- 3&#45;&#45;4 -->
<g id="edge4" class="edge"><title>3&#45;&#45;4</title>
<path fill="none" stroke="black" d="M87.0587,-180.275C88.1864,-191.183 88.1748,-205.211 87.0241,-216.055"/>
</g>
<!-- 9&#45;&#45;10 -->
<g id="edge15" class="edge"><title>9&#45;&#45;10</title>
<path fill="none" stroke="black" d="M52.0587,-612.275C53.1864,-623.183 53.1748,-637.211 52.0241,-648.055"/>
</g>
<!-- 9&#45;&#45;8 -->
<g id="edge12" class="edge"><title>9&#45;&#45;8</title>
<path fill="none" stroke="black" d="M40.2677,-576.055C39.117,-565.211 39.1054,-551.183 40.2331,-540.275"/>
</g>
<!-- 17 -->
<g id="n17" class="node"><title>17</title>
<ellipse fill="orange" stroke="black" cx="325.146" cy="-882" rx="46.2923" ry="18"/>
<text text-anchor="middle" x="325.146" y="-878.3" font-family="Times New Roman,serif" font-size="14.00">[][1][3, 2]</text>
</g>
<!-- 17&#45;&#45;16 -->
<g id="edge28" class="edge"><title>17&#45;&#45;16</title>
<path fill="none" stroke="black" d="M312.586,-864.411C304.137,-853.252 293.046,-838.604 284.616,-827.47"/>
</g>
<!-- 18 -->
<g id="n18" class="node"><title>18</title>
<ellipse fill="orange" stroke="black" cx="378.146" cy="-810" rx="46.2923" ry="18"/>
<text text-anchor="middle" x="378.146" y="-806.3" font-family="Times New Roman,serif" font-size="14.00">[1][][3, 2]</text>
</g>
<!-- 17&#45;&#45;18 -->
<g id="edge30" class="edge"><title>17&#45;&#45;18</title>
<path fill="none" stroke="black" d="M332.097,-864.055C339.473,-852.726 350.724,-837.92 360.406,-826.829"/>
</g>
<!-- 15&#45;&#45;10 -->
<g id="edge26" class="edge"><title>15&#45;&#45;10</title>
<path fill="none" stroke="black" d="M236.833,-726.063C194.376,-712.912 123.557,-690.977 81.2104,-677.861"/>
</g>
<!-- 19 -->
<g id="n19" class="node"><title>19</title>
<ellipse fill="orange" stroke="black" cx="440.146" cy="-882" rx="51.1914" ry="18"/>
<text text-anchor="middle" x="440.146" y="-878.3" font-family="Times New Roman,serif" font-size="14.00">[][][3, 2, 1]</text>
</g>
<!-- 19&#45;&#45;18 -->
<g id="edge31" class="edge"><title>19&#45;&#45;18</title>
<path fill="none" stroke="black" d="M425.453,-864.411C415.569,-853.252 402.595,-838.604 392.734,-827.47"/>
</g>
<!-- 6&#45;&#45;5 -->
<g id="edge6" class="edge"><title>6&#45;&#45;5</title>
<path fill="none" stroke="black" d="M75.2677,-360.055C74.117,-349.211 74.1054,-335.183 75.2331,-324.275"/>
</g>
<!-- 6&#45;&#45;8 -->
<g id="edge11" class="edge"><title>6&#45;&#45;8</title>
<path fill="none" stroke="black" d="M89.5886,-395.969C97.4965,-414.31 106.77,-444.12 97.1459,-468 91.0364,-483.16 78.2864,-496.41 67.0638,-505.87"/>
</g>
<!-- 18&#45;&#45;17 -->
<g id="edge29" class="edge"><title>18&#45;&#45;17</title>
<path fill="none" stroke="black" d="M370.968,-828.292C363.602,-839.557 352.506,-854.144 342.933,-865.116"/>
</g>
<!-- 8&#45;&#45;7 -->
<g id="edge9" class="edge"><title>8&#45;&#45;7</title>
<path fill="none" stroke="black" d="M40.2677,-504.055C39.117,-493.211 39.1054,-479.183 40.2331,-468.275"/>
</g>
<!-- 8&#45;&#45;9 -->
<g id="edge13" class="edge"><title>8&#45;&#45;9</title>
<path fill="none" stroke="black" d="M52.0587,-540.275C53.1864,-551.183 53.1748,-565.211 52.0241,-576.055"/>
</g>
</g>
</svg>
