<?xml version="1.0" encoding="UTF-8" standalone="no"?>
<!DOCTYPE svg PUBLIC "-//W3C//DTD SVG 1.1//EN"
 "http://www.w3.org/Graphics/SVG/1.1/DTD/svg11.dtd">
<!-- Generated by graphviz version 2.38.0 (20140413.2041)
 -->
<!-- Title: G Pages: 1 -->
<svg width="430pt" height="476pt"
 viewBox="0.00 0.00 430.00 476.00" xmlns="http://www.w3.org/2000/svg" xmlns:xlink="http://www.w3.org/1999/xlink">
<g id="graph0" class="graph" transform="scale(1 1) rotate(0) translate(4 472)">
<title>G</title>
<polygon fill="white" stroke="none" points="-4,4 -4,-472 426,-472 426,4 -4,4"/>
<!-- 1 -->
<g id="n1" class="node"><title>1</title>
<ellipse fill="orange" stroke="black" cx="27" cy="-306" rx="27" ry="18"/>
<text text-anchor="middle" x="27" y="-302.3" font-family="Times New Roman,serif" font-size="14.00">1</text>
</g>
<!-- 2 -->
<g id="n2" class="node"><title>2</title>
<ellipse fill="orange" stroke="black" cx="27" cy="-378" rx="27" ry="18"/>
<text text-anchor="middle" x="27" y="-374.3" font-family="Times New Roman,serif" font-size="14.00">2</text>
</g>
<!-- 2&#45;&#45;1 -->
<g id="edge1" class="edge"><title>2&#45;&#45;1</title>
<path fill="none" stroke="black" d="M27,-359.697C27,-348.846 27,-334.917 27,-324.104"/>
</g>
<!-- 3 -->
<g id="n3" class="node"><title>3</title>
<ellipse fill="orange" stroke="black" cx="99" cy="-450" rx="27" ry="18"/>
<text text-anchor="middle" x="99" y="-446.3" font-family="Times New Roman,serif" font-size="14.00">3</text>
</g>
<!-- 3&#45;&#45;2 -->
<g id="edge2" class="edge"><title>3&#45;&#45;2</title>
<path fill="none" stroke="black" d="M84.4297,-434.834C72.0202,-422.77 54.2694,-405.512 41.7957,-393.385"/>
</g>
<!-- 4 -->
<g id="n4" class="node"><title>4</title>
<ellipse fill="orange" stroke="black" cx="99" cy="-378" rx="27" ry="18"/>
<text text-anchor="middle" x="99" y="-374.3" font-family="Times New Roman,serif" font-size="14.00">4</text>
</g>
<!-- 3&#45;&#45;4 -->
<g id="edge4" class="edge"><title>3&#45;&#45;4</title>
<path fill="none" stroke="black" d="M93.1601,-432.411C91.96,-421.414 91.9468,-407.027 93.1206,-395.956"/>
</g>
<!-- 4&#45;&#45;3 -->
<g id="edge3" class="edge"><title>4&#45;&#45;3</title>
<path fill="none" stroke="black" d="M104.879,-395.956C106.053,-407.027 106.04,-421.414 104.84,-432.411"/>
</g>
<!-- 5 -->
<g id="n5" class="node"><title>5</title>
<ellipse fill="orange" stroke="black" cx="171" cy="-450" rx="27" ry="18"/>
<text text-anchor="middle" x="171" y="-446.3" font-family="Times New Roman,serif" font-size="14.00">5</text>
</g>
<!-- 5&#45;&#45;4 -->
<g id="edge5" class="edge"><title>5&#45;&#45;4</title>
<path fill="none" stroke="black" d="M156.43,-434.834C144.02,-422.77 126.269,-405.512 113.796,-393.385"/>
</g>
<!-- 6 -->
<g id="n6" class="node"><title>6</title>
<ellipse fill="orange" stroke="black" cx="171" cy="-378" rx="27" ry="18"/>
<text text-anchor="middle" x="171" y="-374.3" font-family="Times New Roman,serif" font-size="14.00">6</text>
</g>
<!-- 5&#45;&#45;6 -->
<g id="edge7" class="edge"><title>5&#45;&#45;6</title>
<path fill="none" stroke="black" d="M165.16,-432.411C163.96,-421.414 163.947,-407.027 165.121,-395.956"/>
</g>
<!-- 6&#45;&#45;5 -->
<g id="edge6" class="edge"><title>6&#45;&#45;5</title>
<path fill="none" stroke="black" d="M176.879,-395.956C178.053,-407.027 178.04,-421.414 176.84,-432.411"/>
</g>
<!-- 8 -->
<g id="n8" class="node"><title>8</title>
<ellipse fill="orange" stroke="black" cx="198" cy="-306" rx="27" ry="18"/>
<text text-anchor="middle" x="198" y="-302.3" font-family="Times New Roman,serif" font-size="14.00">8</text>
</g>
<!-- 6&#45;&#45;8 -->
<g id="edge11" class="edge"><title>6&#45;&#45;8</title>
<path fill="none" stroke="black" d="M177.399,-360.411C181.64,-349.414 187.189,-335.027 191.46,-323.956"/>
</g>
<!-- 7 -->
<g id="n7" class="node"><title>7</title>
<ellipse fill="orange" stroke="black" cx="143" cy="-234" rx="27" ry="18"/>
<text text-anchor="middle" x="143" y="-230.3" font-family="Times New Roman,serif" font-size="14.00">7</text>
</g>
<!-- 7&#45;&#45;6 -->
<g id="edge8" class="edge"><title>7&#45;&#45;6</title>
<path fill="none" stroke="black" d="M146.389,-252.189C151.779,-279.52 162.241,-332.578 167.623,-359.871"/>
</g>
<!-- 7&#45;&#45;8 -->
<g id="edge10" class="edge"><title>7&#45;&#45;8</title>
<path fill="none" stroke="black" d="M159.204,-248.65C169.709,-260.03 182.6,-276.282 190.806,-288.411"/>
</g>
<!-- 8&#45;&#45;7 -->
<g id="edge9" class="edge"><title>8&#45;&#45;7</title>
<path fill="none" stroke="black" d="M181.937,-291.503C171.355,-280.061 158.311,-263.614 150.075,-251.412"/>
</g>
<!-- 9 -->
<g id="n9" class="node"><title>9</title>
<ellipse fill="orange" stroke="black" cx="215" cy="-234" rx="27" ry="18"/>
<text text-anchor="middle" x="215" y="-230.3" font-family="Times New Roman,serif" font-size="14.00">9</text>
</g>
<!-- 8&#45;&#45;9 -->
<g id="edge13" class="edge"><title>8&#45;&#45;9</title>
<path fill="none" stroke="black" d="M196.287,-287.697C197.848,-276.522 201.396,-262.082 205.289,-251.145"/>
</g>
<!-- 9&#45;&#45;8 -->
<g id="edge12" class="edge"><title>9&#45;&#45;8</title>
<path fill="none" stroke="black" d="M216.715,-252.292C215.142,-263.557 211.548,-278.144 207.618,-289.116"/>
</g>
<!-- 10 -->
<g id="n10" class="node"><title>10</title>
<ellipse fill="orange" stroke="black" cx="287" cy="-162" rx="27" ry="18"/>
<text text-anchor="middle" x="287" y="-158.3" font-family="Times New Roman,serif" font-size="14.00">10</text>
</g>
<!-- 9&#45;&#45;10 -->
<g id="edge15" class="edge"><title>9&#45;&#45;10</title>
<path fill="none" stroke="black" d="M225.577,-217.116C237.07,-204.531 255.054,-187.188 268.758,-175.56"/>
</g>
<!-- 10&#45;&#45;9 -->
<g id="edge14" class="edge"><title>10&#45;&#45;9</title>
<path fill="none" stroke="black" d="M276.458,-178.846C264.951,-191.451 246.913,-208.845 233.188,-220.485"/>
</g>
<!-- 11 -->
<g id="n11" class="node"><title>11</title>
<ellipse fill="orange" stroke="black" cx="359" cy="-234" rx="27" ry="18"/>
<text text-anchor="middle" x="359" y="-230.3" font-family="Times New Roman,serif" font-size="14.00">11</text>
</g>
<!-- 11&#45;&#45;10 -->
<g id="edge16" class="edge"><title>11&#45;&#45;10</title>
<path fill="none" stroke="black" d="M340.812,-220.485C327.087,-208.845 309.049,-191.451 297.542,-178.846"/>
</g>
<!-- 11&#45;&#45;10 -->
<g id="edge25" class="edge"><title>11&#45;&#45;10</title>
<path fill="none" stroke="black" d="M348.423,-217.116C336.93,-204.531 318.946,-187.188 305.242,-175.56"/>
</g>
<!-- 12 -->
<g id="n12" class="node"><title>12</title>
<ellipse fill="orange" stroke="black" cx="359" cy="-162" rx="27" ry="18"/>
<text text-anchor="middle" x="359" y="-158.3" font-family="Times New Roman,serif" font-size="14.00">12</text>
</g>
<!-- 11&#45;&#45;12 -->
<g id="edge18" class="edge"><title>11&#45;&#45;12</title>
<path fill="none" stroke="black" d="M353.16,-216.411C351.96,-205.414 351.947,-191.027 353.121,-179.956"/>
</g>
<!-- 12&#45;&#45;11 -->
<g id="edge17" class="edge"><title>12&#45;&#45;11</title>
<path fill="none" stroke="black" d="M364.879,-179.956C366.053,-191.027 366.04,-205.414 364.84,-216.411"/>
</g>
<!-- 14 -->
<g id="n14" class="node"><title>14</title>
<ellipse fill="orange" stroke="black" cx="327" cy="-90" rx="27" ry="18"/>
<text text-anchor="middle" x="327" y="-86.3" font-family="Times New Roman,serif" font-size="14.00">14</text>
</g>
<!-- 12&#45;&#45;14 -->
<g id="edge22" class="edge"><title>12&#45;&#45;14</title>
<path fill="none" stroke="black" d="M346.378,-145.811C339.953,-134.713 332.995,-119.653 328.932,-108.127"/>
</g>
<!-- 13 -->
<g id="n13" class="node"><title>13</title>
<ellipse fill="orange" stroke="black" cx="359" cy="-18" rx="27" ry="18"/>
<text text-anchor="middle" x="359" y="-14.3" font-family="Times New Roman,serif" font-size="14.00">13</text>
</g>
<!-- 13&#45;&#45;12 -->
<g id="edge19" class="edge"><title>13&#45;&#45;12</title>
<path fill="none" stroke="black" d="M352.817,-35.691C352.492,-46.1176 353.541,-59.8283 354,-72 354.602,-87.9887 354.602,-92.0113 354,-108 353.541,-120.172 352.492,-133.882 352.817,-144.309"/>
</g>
<!-- 13&#45;&#45;12 -->
<g id="edge23" class="edge"><title>13&#45;&#45;12</title>
<path fill="none" stroke="black" d="M368.252,-35.2194C370.46,-45.7017 371.534,-59.6438 372,-72 372.602,-87.9887 372.602,-92.0113 372,-108 371.534,-120.356 370.46,-134.298 368.252,-144.781"/>
</g>
<!-- 13&#45;&#45;14 -->
<g id="edge21" class="edge"><title>13&#45;&#45;14</title>
<path fill="none" stroke="black" d="M357.068,-36.1267C353.005,-47.6526 346.047,-62.7131 339.622,-73.811"/>
</g>
<!-- 14&#45;&#45;12 -->
<g id="edge24" class="edge"><title>14&#45;&#45;12</title>
<path fill="none" stroke="black" d="M339.63,-106.202C346.02,-117.243 352.935,-132.199 357.006,-143.697"/>
</g>
<!-- 14&#45;&#45;13 -->
<g id="edge20" class="edge"><title>14&#45;&#45;13</title>
<path fill="none" stroke="black" d="M328.994,-71.6966C333.065,-60.1985 339.98,-45.2425 346.37,-34.2024"/>
</g>
<!-- 15 -->
<g id="n15" class="node"><title>15</title>
<ellipse fill="orange" stroke="black" cx="287" cy="-234" rx="27" ry="18"/>
<text text-anchor="middle" x="287" y="-230.3" font-family="Times New Roman,serif" font-size="14.00">15</text>
</g>
<!-- 15&#45;&#45;10 -->
<g id="edge26" class="edge"><title>15&#45;&#45;10</title>
<path fill="none" stroke="black" d="M287,-215.697C287,-204.846 287,-190.917 287,-180.104"/>
</g>
<!-- 16 -->
<g id="n16" class="node"><title>16</title>
<ellipse fill="orange" stroke="black" cx="287" cy="-306" rx="27" ry="18"/>
<text text-anchor="middle" x="287" y="-302.3" font-family="Times New Roman,serif" font-size="14.00">16</text>
</g>
<!-- 16&#45;&#45;15 -->
<g id="edge27" class="edge"><title>16&#45;&#45;15</title>
<path fill="none" stroke="black" d="M287,-287.697C287,-276.846 287,-262.917 287,-252.104"/>
</g>
<!-- 17 -->
<g id="n17" class="node"><title>17</title>
<ellipse fill="orange" stroke="black" cx="323" cy="-378" rx="27" ry="18"/>
<text text-anchor="middle" x="323" y="-374.3" font-family="Times New Roman,serif" font-size="14.00">17</text>
</g>
<!-- 17&#45;&#45;16 -->
<g id="edge28" class="edge"><title>17&#45;&#45;16</title>
<path fill="none" stroke="black" d="M314.65,-360.765C308.835,-349.456 301.11,-334.437 295.304,-323.147"/>
</g>
<!-- 18 -->
<g id="n18" class="node"><title>18</title>
<ellipse fill="orange" stroke="black" cx="359" cy="-306" rx="27" ry="18"/>
<text text-anchor="middle" x="359" y="-302.3" font-family="Times New Roman,serif" font-size="14.00">18</text>
</g>
<!-- 17&#45;&#45;18 -->
<g id="edge30" class="edge"><title>17&#45;&#45;18</title>
<path fill="none" stroke="black" d="M325.836,-360.055C330.593,-348.402 338.556,-333.072 345.702,-321.888"/>
</g>
<!-- 18&#45;&#45;17 -->
<g id="edge29" class="edge"><title>18&#45;&#45;17</title>
<path fill="none" stroke="black" d="M356.125,-324.04C351.358,-335.696 343.404,-350.998 336.271,-362.155"/>
</g>
<!-- 19 -->
<g id="n19" class="node"><title>19</title>
<ellipse fill="orange" stroke="black" cx="395" cy="-378" rx="27" ry="18"/>
<text text-anchor="middle" x="395" y="-374.3" font-family="Times New Roman,serif" font-size="14.00">19</text>
</g>
<!-- 19&#45;&#45;18 -->
<g id="edge31" class="edge"><title>19&#45;&#45;18</title>
<path fill="none" stroke="black" d="M386.65,-360.765C380.835,-349.456 373.11,-334.437 367.304,-323.147"/>
</g>
</g>
</svg>
